<svg xmlns="http://www.w3.org/2000/svg" width="63" height="63" viewBox="0 0 63 63">
  <g fill="none" fill-rule="evenodd">
    <rect width="63" height="63" fill="#FFF"/>
    <rect width="54" height="53" x="4.5" y="5" fill="#F9F9F9" rx="6"/>
    <path fill="#DBDBDB" fill-rule="nonzero" d="M14.0728,0.3535 C14.5551,0.3535 14.9688,0.4228 15.3804,0.4228 C21.8505,1.1102 27.0809,6.3406 27.7683,12.8786 C28.2506,17.2837 26.6679,21.5509 23.5032,24.647 C21.8781889,26.2078833 20.7439426,28.0135247 20.3339802,29.7743839 L20.2692,30.0846 L20.2692,38.2067 C20.2692,38.5815182 20.0418446,38.8429479 19.6902143,38.8873829 L19.5811,38.8941 L18.5486,38.8941 L17.3096,40.5454 C16.8624,41.18435 16.1182429,41.5860964 15.2979495,41.6402288 L15.1074,41.6465 L13.0424,41.6465 C12.2159692,41.6465 11.5076355,41.2945947 10.970804,40.6992461 L10.8402,40.5454 L9.6012,38.8941 L8.5687,38.8941 C8.19011667,38.8941 7.92681944,38.6623514 7.88556563,38.3056115 L7.8799,38.2053 L7.8799,30.0846 C7.4669,28.2261 6.3658,26.299 4.6452,24.647 C1.4791,21.6188 -0.1036,17.283 0.378,12.8786 C1.0661,6.4099 6.2965,1.1795 12.7652,0.4228 C13.1782,0.4228 13.5912,0.3535 14.0728,0.3535 Z M16.8259,38.8934 L11.319,38.8934 L11.9392,39.7194 C12.1837333,40.0249111 12.5372247,40.2225704 12.9028225,40.2627229 L13.0403,40.2703 L15.1053,40.2703 C15.4724111,40.2703 15.8389691,40.1065864 16.1095974,39.8288141 L16.2064,39.7194 L16.8259,38.8934 Z M18.8902,30.6348 L9.2547,30.6348 L9.2547,32.011 L13.3847,32.011 C13.797,32.011 14.0721,32.2861 14.0721,32.6984 C14.0721,33.0738545 13.8453231,33.3359207 13.493798,33.3804661 L13.3847,33.3872 L9.2547,33.3872 L9.2547,34.7634 L11.319,34.7634 C11.732,34.7634 12.0078,35.0392 12.0078,35.4515 C12.0078,35.8263182 11.7798661,36.0877479 11.4281306,36.1321829 L11.319,36.1389 L9.2547,36.1389 L9.2547,37.5158 L18.8902,37.5158 L18.8902,36.1389 L14.7602,36.1389 C14.3493,36.1389 14.0728,35.8638 14.0728,35.4515 C14.0728,35.0766818 14.3007339,34.814095 14.6514176,34.7694497 L14.7602,34.7627 L18.8902,34.7627 L18.8902,33.3872 L16.8259,33.3872 C16.4136,33.3872 16.1378,33.1121 16.1378,32.6984 C16.1378,32.3242182 16.3651554,32.0622678 16.7167857,32.0177328 L16.8259,32.011 L18.8902,32.011 L18.8902,30.6348 Z M14.0721,1.7297 C13.6598,1.7297 13.3154,1.7983 12.971,1.7983 C7.1225,2.4871 2.4416,7.1666 1.7542,13.0165 C1.3412,17.0086 2.7174,20.8628 5.6077,23.6152 C7.22642941,25.2345882 8.41979135,27.0362768 9.01329104,28.9070484 L9.1175,29.2586 L19.0281,29.2586 C19.5783,27.2622 20.818,25.3358 22.5379,23.6152 C25.4282,20.8621 26.8051,17.0086 26.3907,13.0165 C25.7719,7.1666 21.0238,2.4864 15.1732,1.7983 C14.8295,1.7983 14.4851,1.7297 14.0721,1.7297 Z M14.0728,10.15 C16.5578,10.15 18.5794,12.1716 18.5794,14.6566 C18.5794,16.8297613 17.0309505,18.6436718 14.9795752,19.0654961 L14.7728,19.1023 L14.7728,28.4375 L13.3728,28.4375 L13.3728,19.1023 L13.1667248,19.0655617 C11.1153495,18.6443711 9.5669,16.8304387 9.5669,14.6566 C9.5669,12.1716 11.5885,10.15 14.0728,10.15 Z M14.0728,11.55 C12.3606,11.55 10.9669,12.9437 10.9669,14.6566 C10.9669,16.128 11.998,17.3572 13.3735,17.6764 L13.3719,17.676 L13.3999529,17.6815 L13.4,14 L14.7,14 L14.6999529,17.6905 L14.7728,17.6764 C16.1483,17.3572 17.1794,16.128 17.1794,14.6566 C17.1794,12.9437 15.7857,11.55 14.0728,11.55 Z M4.72499989,11.9000001 L7.45297992,13.4750001 L6.92797992,14.3843268 L4.19999989,12.8093268 L4.72499989,11.9000001 Z M23.0279799,11.9000001 L23.5529799,12.8093268 L20.8249999,14.3843268 L20.2999999,13.4750001 L23.0279799,11.9000001 Z M8.60932665,7.00000005 L10.1843266,9.72798007 L9.27499997,10.2529801 L7.69999997,7.52500005 L8.60932665,7.00000005 Z M19.0578367,6.94850999 L19.9671633,7.47350999 L18.3921633,10.20149 L17.4828367,9.67649001 L19.0578367,6.94850999 Z M14.35,5.6 L14.35,8.75 L13.3,8.75 L13.3,5.6 L14.35,5.6 Z" transform="translate(17 10)"/>
  </g>
</svg>
