<svg width="15" height="15" viewBox="0 0 15 15" fill="none" xmlns="http://www.w3.org/2000/svg">
<g clip-path="url(#clip0)">
<path d="M10.9272 3.26524H10.5239C9.2296 3.26524 8.18503 2.2169 8.18503 0.926331V0.523071C7.88274 0.523071 7.57344 0.523071 7.27097 0.523071V0.926331C7.27097 2.21534 6.22779 3.26524 4.93207 3.26524H4.52881V7.58173L6.84809 9.27192L7.48927 8.80091C7.63122 8.6966 7.82478 8.6966 7.96673 8.80091L8.60791 9.27192L10.9272 7.58173V3.26524ZM7.728 6.97522C6.91269 6.97522 6.24938 6.31191 6.24938 5.4966C6.24938 4.68129 6.91269 4.01799 7.728 4.01799C8.54331 4.01799 9.20662 4.68129 9.20662 5.4966C9.20662 6.31191 8.54331 6.97522 7.728 6.97522Z" fill="#F06623"/>
<path d="M14.6058 5.89392C10.2618 9.0597 13.3334 6.82126 9.2876 9.76957C10.404 10.5893 9.57456 9.9802 14.6057 13.6753C14.6105 12.4253 14.6086 7.13781 14.6058 5.89392Z" fill="#F06623"/>
<path d="M0.84644 5.89392C0.843563 7.13069 0.844961 12.4881 0.845956 13.677C5.83618 10.012 5.1015 10.5515 6.16551 9.77021C1.87725 6.64522 5.91866 9.59049 0.84644 5.89392Z" fill="#F06623"/>
<path d="M11.7344 3.40002V6.9971L14.2112 5.19211C13.6912 4.81296 12.5348 3.97816 11.7344 3.40002Z" fill="#F06623"/>
<path d="M7.72925 9.62457C4.03091 12.3408 8.9383 8.7367 1.38232 14.286C10.8842 14.286 13.3955 14.2916 14.0727 14.2835C7.17982 9.22113 12.2814 12.9679 7.72925 9.62457Z" fill="#F06623"/>
<path d="M4.93207 2.45872C5.79133 2.45872 6.46445 1.77054 6.46445 0.926331V0.523071C5.72716 0.523071 5.12907 0.523071 4.93207 0.523071C4.70936 0.523071 4.52881 0.703624 4.52881 0.926331V2.45872H4.93207Z" fill="#F06623"/>
<path d="M3.71868 6.99696V3.40002C2.91119 3.98351 1.74921 4.82237 1.24121 5.19154L3.71868 6.99696Z" fill="#F06623"/>
<path d="M8.9917 0.926331C8.9917 1.77054 9.66482 2.45872 10.5241 2.45872H10.9273C10.9273 2.19875 10.9273 1.31152 10.9273 0.926331C10.9273 0.703624 10.7468 0.523071 10.5241 0.523071C10.3411 0.523071 9.73899 0.523071 8.9917 0.523071V0.926331Z" fill="#F06623"/>
</g>
<defs>
<clipPath id="clip0">
<rect width="13.7665" height="13.7665" fill="white" transform="translate(0.844238 0.52301)"/>
</clipPath>
</defs>
</svg>
