<svg width="128" height="128" viewBox="0 0 128 128" fill="none" xmlns="http://www.w3.org/2000/svg">
<path d="M123.064 99.1338C122.451 97.9461 121.391 97.0507 120.117 96.6444C118.844 96.2382 117.461 96.3543 116.273 96.9674C112.684 98.8206 109.077 100.506 105.454 102.024L96.4333 68.302L94.613 54.1987C73.901 51.9572 52.9499 53.8566 32.9787 59.7866C30.6138 41.5652 24.6132 24.0043 15.333 8.14586C14.9382 7.46315 14.4099 6.86698 13.7797 6.39293C13.1494 5.91888 12.4301 5.57666 11.6647 5.38671C10.8992 5.19676 10.1034 5.16296 9.32461 5.28734C8.54584 5.41172 7.80011 5.69173 7.13192 6.11064V6.11064C5.83929 6.92176 4.91168 8.20265 4.54428 9.6838C4.17687 11.1649 4.39832 12.7309 5.16202 14.0521C14.3187 30.0381 19.8306 46.6382 21.563 63.4736L22.1523 63.413C21.9618 63.4842 21.7709 63.5525 21.5805 63.6244L23.5363 78.7785L23.6905 78.7586L23.5494 109.013C19.9139 108.157 16.2725 107.152 12.625 105.998C11.9942 105.798 11.3301 105.723 10.6705 105.779C10.011 105.836 9.36898 106.021 8.78113 106.325C8.19327 106.63 7.67111 107.047 7.24443 107.553C6.81776 108.059 6.49494 108.644 6.29441 109.275C6.09388 109.906 6.01955 110.57 6.07568 111.229C6.13182 111.889 6.31731 112.531 6.62156 113.119C6.92581 113.706 7.34287 114.229 7.84893 114.655C8.35498 115.082 8.94012 115.405 9.57093 115.605C14.2163 117.082 18.8598 118.331 23.5012 119.353L23.499 119.809L25.7142 119.819C35.1522 121.773 44.7636 122.766 54.4016 122.784C58.3971 122.784 62.3727 122.609 66.3286 122.257C85.4077 120.415 103.944 114.867 120.898 105.925C122.086 105.312 122.981 104.252 123.388 102.978C123.794 101.704 123.678 100.322 123.064 99.1338V99.1338ZM30.6833 110.497L30.8357 77.8365L89.5648 70.2568L98.7638 104.647C77.0088 112.682 53.4901 114.703 30.6833 110.497V110.497Z" fill="#F16521"/>
<path d="M46.6103 39.2163L39.2104 11.5996L63.031 34.8164L55.6311 7.19969" stroke="#F16521" stroke-width="6.18182" stroke-linecap="round" stroke-linejoin="round"/>
<line x1="35.6927" y1="25.3426" x2="65.5486" y2="17.3427" stroke="#F16521" stroke-width="3.09091" stroke-linecap="round"/>
<line x1="37.2927" y1="31.3133" x2="67.1486" y2="23.3134" stroke="#F16521" stroke-width="3.09091" stroke-linecap="round"/>
</svg>
