<svg width="13" height="17" viewBox="0 0 13 17" fill="none" xmlns="http://www.w3.org/2000/svg">
<path d="M10.71 0.184082H0.114746V6.92649V15.7882C0.114746 16.4531 0.653778 16.9922 1.31875 16.9922H12.3153V1.78942C12.3153 0.902831 11.5966 0.184082 10.71 0.184082Z" fill="#F16521"/>
<path fill-rule="evenodd" clip-rule="evenodd" d="M9.90689 5.32306H1.71967V2.59399C1.71967 2.15068 2.07903 1.79132 2.52234 1.79132H10.7096V4.52039C10.7096 4.96371 10.3502 5.32306 9.90689 5.32306ZM5.62059 5.02232V4.0992H6.14809L6.7105 5.02232H7.31169L6.68335 3.98672C6.83591 3.92207 6.95679 3.8167 7.046 3.6706C7.13521 3.52451 7.17982 3.36225 7.17982 3.18383C7.17982 3.07264 7.15784 2.9621 7.11388 2.8522C7.06992 2.74231 7.00916 2.64405 6.93158 2.55742C6.85401 2.4708 6.76157 2.40098 6.65426 2.34798C6.54695 2.29497 6.42994 2.26846 6.30324 2.26846H5.08533V5.02232H5.62059ZM3.04422 4.09959V5.02272H2.50896V2.26886H3.72686C3.85357 2.26886 3.97057 2.29536 4.07788 2.34837C4.18519 2.40138 4.27763 2.47119 4.35521 2.55782C4.43278 2.64444 4.49355 2.7427 4.53751 2.8526C4.58146 2.96249 4.60344 3.07303 4.60344 3.18422C4.60344 3.36264 4.55884 3.5249 4.46963 3.671C4.38042 3.81709 4.25953 3.92246 4.10697 3.98711L4.73532 5.02272H4.13412L3.57172 4.09959H3.04422ZM3.04226 3.62858H3.71327C3.7624 3.62858 3.8083 3.61694 3.85097 3.59367C3.89363 3.5704 3.93048 3.53872 3.96151 3.49864C3.99254 3.45856 4.0171 3.41137 4.0352 3.35707C4.0533 3.30277 4.06235 3.24459 4.06235 3.18253C4.06235 3.11789 4.05201 3.05841 4.03132 3.00411C4.01064 2.94981 3.98284 2.90262 3.94793 2.86254C3.91302 2.82246 3.87295 2.79143 3.82769 2.76945C3.78244 2.74747 3.73654 2.73648 3.69 2.73648H3.04226V3.62858ZM5.62132 3.62779H6.29233C6.34146 3.62779 6.38736 3.61616 6.43003 3.59288C6.47269 3.56961 6.50954 3.53794 6.54057 3.49786C6.5716 3.45778 6.59616 3.41059 6.61426 3.35628C6.63236 3.30198 6.64142 3.2438 6.64142 3.18174C6.64142 3.1171 6.63107 3.05763 6.61039 3.00332C6.5897 2.94902 6.5619 2.90183 6.52699 2.86175C6.49209 2.82167 6.45201 2.79064 6.40675 2.76867C6.3615 2.74669 6.31561 2.7357 6.26906 2.7357H5.62132V3.62779ZM8.20014 5.02232V4.0992H8.72764L9.29004 5.02232H9.89124L9.26289 3.98672C9.41545 3.92207 9.53634 3.8167 9.62555 3.6706C9.71476 3.52451 9.75936 3.36225 9.75936 3.18383C9.75936 3.07264 9.73738 2.9621 9.69343 2.8522C9.64947 2.74231 9.5887 2.64405 9.51113 2.55742C9.43356 2.4708 9.34111 2.40098 9.2338 2.34798C9.12649 2.29497 9.00949 2.26846 8.88278 2.26846H7.66488V5.02232H8.20014ZM8.20038 3.62779H8.8714C8.92053 3.62779 8.96642 3.61616 9.00909 3.59288C9.05175 3.56961 9.0886 3.53794 9.11963 3.49786C9.15066 3.45778 9.17523 3.41059 9.19333 3.35628C9.21143 3.30198 9.22048 3.2438 9.22048 3.18174C9.22048 3.1171 9.21013 3.05763 9.18945 3.00332C9.16876 2.94902 9.14096 2.90183 9.10606 2.86175C9.07115 2.82167 9.03107 2.79064 8.98582 2.76867C8.94057 2.74669 8.89467 2.7357 8.84812 2.7357H8.20038V3.62779ZM1.64014 7.00646H10.7092V7.61107H1.64014V7.00646ZM1.64018 8.81961H10.7093V9.42422H1.64018V8.81961ZM10.7093 10.6329H1.64018V11.2375H10.7093V10.6329ZM1.64018 12.4453H10.7093V13.0499H1.64018V12.4453ZM8.89547 14.2586H1.64018V14.8632H8.89547V14.2586ZM9.4996 14.2586H10.7088V14.8632H9.4996V14.2586Z" fill="#FFFCFC"/>
</svg>
