<svg width="15" height="15" viewBox="0 0 15 15" fill="none" xmlns="http://www.w3.org/2000/svg">
<g clip-path="url(#clip0)">
<path d="M8.98256 4.50562H6.54541V5.45503H8.73547L8.98256 4.50562Z" fill="#F16521"/>
<path d="M6.86726 8.85753C7.36769 8.43541 8.09951 8.43541 8.59994 8.85753L8.98089 9.17558L12.2436 6.42964V1.89287C12.2436 1.76178 12.1373 1.65552 12.0062 1.65552H4.88559V2.52328C4.88507 2.96142 4.53002 3.31647 4.09189 3.31699H3.22412V6.43012L6.48583 9.17606L6.86726 8.85753ZM6.11983 7.46261C6.11746 7.46261 6.11627 7.45976 6.11414 7.45905C5.88279 7.35006 5.66259 7.21882 5.45667 7.06717C5.36425 6.98556 5.34971 6.84677 5.42322 6.74777C5.49672 6.64878 5.63378 6.62255 5.73864 6.68741C5.84677 6.76623 5.9593 6.83882 6.07568 6.90483L6.44192 5.92788H6.07236C5.94128 5.92788 5.83501 5.82161 5.83501 5.69053C5.83501 5.55944 5.94128 5.45317 6.07236 5.45317V4.50376C5.94128 4.50376 5.83501 4.39749 5.83501 4.2664C5.83501 4.13532 5.94128 4.02905 6.07236 4.02905H9.10764L9.55552 2.30776C9.59052 2.18353 9.71837 2.11003 9.84334 2.1423C9.96831 2.17458 10.0446 2.3008 10.015 2.42644L9.16935 5.67747L9.58519 6.78472C9.63266 6.75244 9.68203 6.72111 9.72927 6.68646C9.83442 6.61912 9.97377 6.64478 10.0481 6.74515C10.1223 6.84553 10.1061 6.98629 10.011 7.06717C9.35368 7.55923 8.55493 7.82565 7.73384 7.82671C7.17643 7.82612 6.62609 7.70193 6.12244 7.46308L6.11983 7.46261Z" fill="#F16521"/>
<path d="M9.16701 7.02241L8.75591 5.92773H6.94871L6.50391 7.1126C7.36442 7.46051 8.33201 7.42774 9.16701 7.02241Z" fill="#F16521"/>
<path d="M8.25342 0.861283C7.93774 0.65358 7.52877 0.65358 7.2131 0.861283L6.7251 1.18076H8.74141L8.25342 0.861283Z" fill="#F16521"/>
<path d="M12.7183 3.78265V6.02564L14.2171 4.76364L12.7183 3.78265Z" fill="#F16521"/>
<path d="M4.40925 2.52226V1.99011L3.55811 2.84126H4.09025C4.26632 2.841 4.40899 2.69833 4.40925 2.52226Z" fill="#F16521"/>
<path d="M7.17104 9.21935L1.46436 13.9859C1.53556 14.0006 13.9145 14.0039 14.0009 13.9859L8.29491 9.21983C7.97215 8.94123 7.49404 8.94103 7.17104 9.21935Z" fill="#F16521"/>
<path d="M9.35449 9.48624L14.3589 13.6667C14.3949 13.5526 14.3826 14.113 14.3826 5.25256L9.35449 9.48624Z" fill="#F16521"/>
<path d="M2.74813 3.78265L1.24854 4.76387L2.74813 6.02612V3.78265Z" fill="#F16521"/>
<path d="M1.08665 5.25256C1.08665 14.1016 1.07383 13.5478 1.11039 13.6665L6.11451 9.486L1.08665 5.25256Z" fill="#F16521"/>
</g>
<defs>
<clipPath id="clip0">
<rect width="13.7665" height="13.7665" fill="white" transform="translate(0.844238 0.588989)"/>
</clipPath>
</defs>
</svg>
