<svg width="15" height="15" viewBox="0 0 15 15" fill="none" xmlns="http://www.w3.org/2000/svg">
<g clip-path="url(#clip0)">
<path d="M7.72743 2.53751L14.6106 6.51154V4.629L7.72743 0.654968L5.35363 2.02549V0.654968H2.69559V3.5601L0.844238 4.629V6.51154L7.72743 2.53751Z" fill="#F06623"/>
<path d="M9.05664 7.94153H11.0271V8.9863H9.05664V7.94153Z" fill="#F06623"/>
<path d="M4.42725 7.94153H6.39774V11.7634H4.42725V7.94153Z" fill="#F06623"/>
<path d="M1.92432 6.82048V11.7641H3.62209V7.13558H7.20584V11.7641H13.5321V6.82048L7.72821 3.4696L1.92432 6.82048ZM8.25061 7.13558H11.8344V9.79362H8.25061V7.13558Z" fill="#F06623"/>
<path d="M0.844238 12.5703H14.6107V14.4217H0.844238V12.5703Z" fill="#F06623"/>
</g>
<defs>
<clipPath id="clip0">
<rect width="13.7665" height="13.7665" fill="white" transform="translate(0.844238 0.654968)"/>
</clipPath>
</defs>
</svg>
